<?xml version="1.0" encoding="UTF-8"?>
<svg id="Layer_1" data-name="Layer 1" xmlns="http://www.w3.org/2000/svg" xmlns:xlink="http://www.w3.org/1999/xlink" viewBox="0 0 52.26 26.64">
  <defs>
    <style>
      .cls-1 {
        fill: url(#linear-gradient-2);
      }

      .cls-2 {
        fill: url(#linear-gradient-5);
      }

      .cls-3 {
        fill: url(#linear-gradient-3);
      }

      .cls-4 {
        fill: url(#linear-gradient);
      }

      .cls-5 {
        fill: url(#linear-gradient-4);
      }
    </style>
    <linearGradient id="linear-gradient" x1="22.06" y1="4.55" x2="11.02" y2="4.55" gradientUnits="userSpaceOnUse">
      <stop offset="0" stop-color="#f1cea5"/>
      <stop offset=".07" stop-color="#efb69b"/>
      <stop offset=".18" stop-color="#dfa78d"/>
      <stop offset=".39" stop-color="#c59078"/>
      <stop offset=".52" stop-color="#bc8870"/>
      <stop offset=".61" stop-color="#aa7a63"/>
      <stop offset=".73" stop-color="#986c56"/>
      <stop offset=".86" stop-color="#8c634e"/>
      <stop offset="1" stop-color="#89614c"/>
    </linearGradient>
    <linearGradient id="linear-gradient-2" x1="22.4" y1="21.42" x2="11.36" y2="21.42" xlink:href="#linear-gradient"/>
    <linearGradient id="linear-gradient-3" x1="40.76" y1="4.55" x2="29.71" y2="4.55" xlink:href="#linear-gradient"/>
    <linearGradient id="linear-gradient-4" x1="40.42" y1="21.42" x2="29.37" y2="21.42" xlink:href="#linear-gradient"/>
    <linearGradient id="linear-gradient-5" x1="52.26" y1="10.49" x2="0" y2="10.49" xlink:href="#linear-gradient"/>
  </defs>
  <g>
    <path class="cls-4" d="M22.06,.35C22.06,.16,21.91,0,21.72,0H11.37C11.18,0,11.02,.16,11.02,.35s.16,.35,.35,.35h1.01c1.08,0,1.96,.85,1.99,1.93,.06,2.02,.14,4.89,.14,4.84,3.1,.26,4.5,1.63,4.5,1.63V2.68c0-1.1,.89-1.99,1.99-1.99h.73c.19,0,.35-.16,.35-.35Z"/>
    <path class="cls-1" d="M11.36,26.3c0,.19,.16,.35,.35,.35h10.35c.19,0,.35-.16,.35-.35s-.16-.35-.35-.35h-1.01c-1.08,0-1.96-.85-1.99-1.93-.06-2.02-.14-7.19-.14-7.14-2.48-.75-4.5-.69-4.5-.69v7.76c0,1.1-.89,1.99-1.99,1.99h-.73c-.19,0-.35,.16-.35,.35Z"/>
  </g>
  <g>
    <path class="cls-3" d="M29.71,.35c0-.19,.16-.35,.35-.35h10.35c.19,0,.35,.16,.35,.35,0,.19-.16,.35-.35,.35h-1.01c-1.08,0-1.96,.85-1.99,1.93-.06,2.02-.14,4.89-.14,4.84-3.1,.26-4.5,1.63-4.5,1.63V2.68c0-1.1-.89-1.99-1.99-1.99h-.73c-.19,0-.35-.16-.35-.35Z"/>
    <path class="cls-5" d="M40.42,26.3c0,.19-.16,.35-.35,.35h-10.35c-.19,0-.35-.16-.35-.35s.16-.35,.35-.35h1.01c1.08,0,1.96-.85,1.99-1.93,.06-2.02,.14-7.19,.14-7.14,2.48-.75,4.5-.69,4.5-.69v7.76c0,1.1,.89,1.99,1.99,1.99h.73c.19,0,.35,.16,.35,.35Z"/>
  </g>
  <path class="cls-2" d="M48.69,8.46c-2.04,1.23-4.29,1.81-6.61,2.15-2.16,.32-4.32,.58-6.48,.9-.64,.09-1.26,.3-1.9,.39,.67-.64,1.51-.91,2.36-1.15,2.19-.62,4.46-.83,6.67-1.32,2.03-.45,4.01-1.03,5.75-2.23,2.13-1.46,3.28-3.52,3.78-6,0-.01-.03-.03-.07-.06-.29,.06-.37,.35-.52,.56-1.27,1.79-2.85,3.3-4.74,4.37-1.8,1.01-3.83,1.51-5.87,1.87-1.7,.31-3.4,.61-5.06,1.07-2.91,.8-5.52,2.15-7.82,4.11-.57,.48-1.08,1.02-1.61,1.54-.18,.18-.32,.25-.44,.26-.12,0-.26-.08-.44-.26-.53-.52-1.04-1.06-1.61-1.54-2.3-1.96-4.91-3.31-7.82-4.11-1.67-.46-3.36-.76-5.06-1.07-2.04-.37-4.07-.86-5.87-1.87C3.43,5,1.86,3.49,.59,1.7c-.14-.2-.22-.5-.52-.56C.03,1.17,0,1.19,0,1.2,.51,3.68,1.66,5.75,3.78,7.2c1.74,1.19,3.72,1.78,5.75,2.23,2.21,.49,4.48,.71,6.67,1.32,.85,.24,1.68,.51,2.36,1.15-.65-.09-1.27-.3-1.9-.39-2.16-.32-4.32-.58-6.48-.9-2.32-.35-4.57-.92-6.61-2.15-1.1-.66-2.08-1.48-2.96-2.43-.12,.21,.03,.31,.1,.43,1.43,2.37,3.42,4.04,6.07,4.91,1.87,.61,3.8,.83,5.74,1.03,2.16,.23,4.33,.41,6.34,1.32,.57,.26,1.13,.53,1.63,1.07-.16,0-.24,.02-.29,0-2.25-1.05-4.65-1.23-7.08-1.26-2.23-.03-4.43-.3-6.49-1.25-.07-.03-.18,0-.35,0,1.29,1.25,2.76,1.99,4.44,2.34,1.31,.27,2.64,.29,3.97,.32,2.42,.05,4.79,.31,6.69,2.05,.27,.24,.37,.03,.53-.12,.34-.34,.59-.77,1.07-1.05-.05,1.22-.78,2.01-1.55,2.83,.86,.25,1.64,.4,2.36,.71,.76,.33,1.51,.48,2.26,.49h0s.04,0,.07,0,.04,0,.07,0h0c.75-.01,1.5-.17,2.26-.5,.72-.31,1.5-.46,2.36-.71-.77-.82-1.5-1.62-1.55-2.83,.49,.28,.74,.71,1.07,1.05,.15,.15,.26,.37,.53,.12,1.9-1.74,4.27-2,6.69-2.05,1.33-.03,2.66-.05,3.97-.32,1.68-.34,3.15-1.08,4.44-2.34-.17,0-.28-.03-.35,0-2.06,.95-4.25,1.22-6.49,1.25-2.43,.03-4.83,.21-7.08,1.26-.05,.02-.13,0-.29,0,.5-.54,1.06-.81,1.63-1.07,2.01-.92,4.18-1.1,6.34-1.32,1.94-.2,3.87-.42,5.74-1.03,2.65-.87,4.64-2.54,6.07-4.91,.07-.11,.22-.22,.1-.43-.88,.95-1.86,1.76-2.96,2.43Z"/>
</svg>