<?xml version="1.0" encoding="UTF-8"?>
<svg id="Layer_1" data-name="Layer 1" xmlns="http://www.w3.org/2000/svg" xmlns:xlink="http://www.w3.org/1999/xlink" viewBox="0 0 204.93 30.07">
  <defs>
    <style>
      .cls-1 {
        fill: url(#linear-gradient-2);
      }

      .cls-2 {
        fill: url(#linear-gradient-5);
      }

      .cls-3 {
        fill: #fff;
        font-family: Swiss721BT-Black, 'Swis721 Blk BT';
        font-size: 23px;
        opacity: .95;
      }

      .cls-4 {
        fill: url(#linear-gradient-3);
      }

      .cls-5 {
        fill: url(#linear-gradient);
      }

      .cls-6 {
        fill: url(#linear-gradient-4);
      }
    </style>
    <linearGradient id="linear-gradient" x1="24.9" y1="5.13" x2="12.44" y2="5.13" gradientUnits="userSpaceOnUse">
      <stop offset=".05" stop-color="#f1cea5"/>
      <stop offset=".13" stop-color="#efb69b"/>
      <stop offset=".23" stop-color="#dfa78d"/>
      <stop offset=".41" stop-color="#c59078"/>
      <stop offset=".52" stop-color="#bc8870"/>
      <stop offset=".61" stop-color="#aa7a63"/>
      <stop offset=".73" stop-color="#986c56"/>
      <stop offset=".86" stop-color="#8c634e"/>
      <stop offset="1" stop-color="#89614c"/>
    </linearGradient>
    <linearGradient id="linear-gradient-2" x1="25.28" y1="24.17" x2="12.82" y2="24.17" xlink:href="#linear-gradient"/>
    <linearGradient id="linear-gradient-3" x1="45.99" y1="5.13" x2="33.53" y2="5.13" xlink:href="#linear-gradient"/>
    <linearGradient id="linear-gradient-4" x1="45.61" y1="24.17" x2="33.15" y2="24.17" xlink:href="#linear-gradient"/>
    <linearGradient id="linear-gradient-5" x1="58.97" y1="11.84" x2="0" y2="11.84" xlink:href="#linear-gradient"/>
  </defs>
  <g>
    <g>
      <path class="cls-5" d="M24.9,.39C24.9,.18,24.72,0,24.51,0H12.83C12.61,0,12.44,.18,12.44,.39s.18,.39,.39,.39h1.14c1.21,0,2.21,.96,2.24,2.17,.06,2.28,.15,5.52,.15,5.46,3.5,.3,5.08,1.83,5.08,1.83V3.03c0-1.24,1-2.24,2.24-2.24h.82c.22,0,.39-.18,.39-.39Z"/>
      <path class="cls-1" d="M12.82,29.67c0,.22,.18,.39,.39,.39h11.68c.22,0,.39-.18,.39-.39s-.18-.39-.39-.39h-1.14c-1.21,0-2.21-.96-2.24-2.17-.06-2.28-.15-8.11-.15-8.05-2.8-.85-5.08-.77-5.08-.77v8.76c0,1.24-1,2.24-2.24,2.24h-.82c-.22,0-.39,.18-.39,.39Z"/>
    </g>
    <g>
      <path class="cls-4" d="M33.53,.39c0-.22,.18-.39,.39-.39h11.68c.22,0,.39,.18,.39,.39,0,.22-.18,.39-.39,.39h-1.14c-1.21,0-2.21,.96-2.24,2.17-.06,2.28-.15,5.52-.15,5.46-3.5,.3-5.08,1.83-5.08,1.83V3.03c0-1.24-1-2.24-2.24-2.24h-.82c-.22,0-.39-.18-.39-.39Z"/>
      <path class="cls-6" d="M45.61,29.67c0,.22-.18,.39-.39,.39h-11.68c-.22,0-.39-.18-.39-.39s.18-.39,.39-.39h1.14c1.21,0,2.21-.96,2.24-2.17,.06-2.28,.15-8.11,.15-8.05,2.8-.85,5.08-.77,5.08-.77v8.76c0,1.24,1,2.24,2.24,2.24h.82c.22,0,.39,.18,.39,.39Z"/>
    </g>
    <path class="cls-2" d="M54.94,9.54c-2.3,1.39-4.84,2.04-7.46,2.43-2.43,.36-4.87,.66-7.31,1.02-.72,.11-1.42,.34-2.15,.44,.76-.72,1.7-1.03,2.66-1.3,2.47-.7,5.03-.94,7.52-1.49,2.29-.51,4.52-1.17,6.49-2.52,2.4-1.64,3.7-3.98,4.27-6.77,0-.01-.04-.04-.08-.07-.33,.07-.42,.4-.59,.63-1.44,2.02-3.21,3.73-5.35,4.93-2.03,1.14-4.32,1.7-6.62,2.11-1.92,.34-3.83,.69-5.71,1.2-3.28,.9-6.23,2.43-8.82,4.64-.64,.54-1.22,1.15-1.82,1.74-.21,.2-.36,.28-.5,.29-.14,0-.29-.09-.5-.29-.6-.58-1.18-1.19-1.82-1.74-2.59-2.21-5.54-3.74-8.82-4.64-1.88-.52-3.8-.86-5.71-1.2-2.3-.41-4.59-.98-6.62-2.11C3.88,5.65,2.1,3.94,.66,1.92c-.16-.23-.25-.56-.59-.63C.04,1.32,0,1.35,0,1.36c.57,2.79,1.87,5.13,4.27,6.77,1.97,1.35,4.2,2.01,6.49,2.52,2.5,.56,5.06,.8,7.52,1.49,.95,.27,1.9,.58,2.66,1.3-.73-.1-1.43-.34-2.15-.44-2.43-.36-4.87-.66-7.31-1.02-2.62-.39-5.16-1.04-7.46-2.43-1.25-.75-2.35-1.67-3.34-2.74-.14,.23,.04,.35,.11,.48,1.61,2.68,3.86,4.56,6.85,5.54,2.1,.69,4.29,.93,6.47,1.16,2.43,.26,4.88,.46,7.15,1.49,.64,.29,1.28,.6,1.84,1.21-.18,0-.27,.02-.33,0-2.54-1.18-5.24-1.39-7.99-1.42-2.52-.03-4.99-.34-7.32-1.41-.08-.04-.2,0-.39,0,1.46,1.42,3.11,2.25,5.01,2.64,1.48,.3,2.98,.33,4.49,.36,2.74,.06,5.41,.35,7.55,2.32,.3,.27,.42,.03,.59-.14,.38-.38,.66-.87,1.21-1.18-.06,1.37-.88,2.27-1.75,3.19,.97,.28,1.86,.45,2.67,.8,.86,.37,1.71,.54,2.55,.55h0s.05,0,.08,0,.05,0,.08,0h0c.85-.02,1.69-.19,2.55-.56,.81-.35,1.7-.52,2.67-.8-.87-.93-1.69-1.82-1.75-3.19,.55,.31,.83,.8,1.21,1.18,.17,.17,.29,.41,.59,.14,2.15-1.97,4.82-2.26,7.55-2.32,1.5-.03,3-.06,4.49-.36,1.89-.39,3.55-1.22,5.01-2.64-.2,0-.31-.03-.39,0-2.32,1.07-4.8,1.38-7.32,1.41-2.74,.04-5.45,.24-7.99,1.42-.06,.03-.15,0-.33,0,.56-.61,1.2-.91,1.84-1.21,2.27-1.03,4.72-1.24,7.15-1.49,2.19-.23,4.37-.47,6.47-1.16,2.99-.98,5.24-2.86,6.85-5.54,.08-.13,.25-.25,.11-.48-1,1.07-2.1,1.99-3.34,2.74Z"/>
  </g>
  <text class="cls-3" transform="translate(64.85 24.08)"><tspan x="0" y="0">H&amp;H Group</tspan></text>
</svg>